<?xml version="1.0" standalone="no"?><!DOCTYPE svg PUBLIC "-//W3C//DTD SVG 1.1//EN" "http://www.w3.org/Graphics/SVG/1.1/DTD/svg11.dtd"><svg t="1647178707437" class="icon" viewBox="0 0 2833 1024" version="1.1" xmlns="http://www.w3.org/2000/svg" p-id="1524" xmlns:xlink="http://www.w3.org/1999/xlink" width="553.3203125" height="200"><defs><style type="text/css"></style></defs><path d="M840.464787 0.000341H160.324213A160.051147 160.051147 0 0 0 0 159.744288v678.297374a160.051147 160.051147 0 0 0 160.324213 160.051147h680.140574a160.051147 160.051147 0 0 0 159.77808-160.051147V159.778421A160.051147 160.051147 0 0 0 840.49892 0.000341z" fill="#00A0E9" p-id="1525"></path><path d="M823.978392 626.653999c-40.004253-13.277862-94.071435-33.791989-153.531682-55.432515a808.038131 808.038131 0 0 0 83.524239-210.32953h-197.358868V290.065311h241.66392V250.334125h-241.66392V132.198697h-98.6453a16.759461 16.759461 0 0 0-17.305595 17.032528v101.1029H197.358868v39.731186h243.302318v70.826643H238.933254v39.492254h391.167869a699.357634 699.357634 0 0 1-56.217581 137.318354c-127.044224-41.642653-262.485246-75.707708-347.647884-54.067182a200.601533 200.601533 0 0 0-110.011697 61.64478c-94.617568 114.619695-27.033591 288.972704 172.714609 288.972703 118.169561 0 231.970056-65.672511 320.102294-173.806875 131.379156 62.975979 391.16787 171.110343 391.167869 171.110343v-154.077815a1083.767105 1083.767105 0 0 1-176.264474-50.85865zM270.33591 767.488086c-155.716215 0-201.659666-122.470359-124.620759-189.235137a194.901268 194.901268 0 0 1 97.587168-36.215455c92.467169-8.94293 178.175941 27.033591 278.97164 75.434642-70.826643 92.159969-161.382346 150.01595-251.938049 150.01595z" fill="#FFFFFF" p-id="1526"></path><path d="M2425.445592 156.535756h286.310304v56.763714h102.434099V145.408293a27.033591 27.033591 0 0 0-27.033591-27.033591h-164.898078v-53.247982h-108.134364v54.067182h-191.931669v94.071435h102.434099l0.8192-56.763715zM1805.584465 70.007785l-104.891699 248.14925h80.281574v295.253235h88.132237V221.628001h-31.914656l66.218645-151.65435zM2825.829458 599.859341l-32.187723-108.134364a16.486395 16.486395 0 0 0-15.701328-11.878396h-85.128505l24.575992 83.285306h-100.249566v-162.235679h196.778601v-38.365854h-196.778601V286.549579h196.778601V248.183725H2323.011492v38.365854h196.778601v75.980775h-196.778601v38.63892h196.778601v162.201546h-196.778601v38.673054h502.783833v-2.184533zM2030.488923 273.30585a20.54826 20.54826 0 0 0-18.09066-11.605329h-76.253842l59.460247 187.050604h90.043703l-55.159448-175.445275z" fill="#3B3A39" p-id="1527"></path><path d="M2223.512859 74.615783h-91.64797v95.436768h-225.450591v38.365854h225.450591v343.620152a15.701328 15.701328 0 0 1-14.609061 14.335996h-46.489585v40.004253h118.954627c19.046394-1.024 34.065055-16.622928 34.338122-35.703455V208.418405h37.034654V170.052551h-37.580787V74.615783zM1652.837849 248.695725h-175.718341V185.719746h203.571132V146.534692h-203.571132V66.765119h-90.82877a18.090661 18.090661 0 0 0-18.090661 18.670927v61.098646h-202.239932V185.685613h202.205799v62.975979h-170.56421v39.219187h340.070287s-18.90986 73.523175-112.196229 152.473549a427.929457 427.929457 0 0 1-111.615963-113.561562h-91.13597a513.638229 513.638229 0 0 0 145.715152 155.716214 782.096806 782.096806 0 0 1-205.994598 92.15997v47.069851a925.627425 925.627425 0 0 0 263.850578-101.649033 948.90635 948.90635 0 0 0 260.334847 101.649033v-44.339185a1075.950575 1075.950575 0 0 1-201.3866-96.255968 426.871324 426.871324 0 0 0 167.594611-232.447923zM1364.377145 875.622449l14.335995 45.670385h42.700786l-83.797305-227.600991h-31.880523l-83.558372 227.600991h42.734919l15.667195-45.670385h83.797305z m-39.731187-123.289558l31.368523 94.617568H1290.580903l34.065055-94.617568zM1556.581881 693.691843v227.600991h137.898621v-30.822389h-97.075168v-196.778602zM1844.769518 693.691843h41.09652v227.635125h-41.09652zM2140.261687 693.691843h-88.678371v227.600991h41.09652v-87.313037h47.581851a70.314643 70.314643 0 1 0 0-140.287954z m-2.4576 108.134364H2092.713969v-77.038907h45.124252a38.911987 38.911987 0 0 1 0 77.823974v-0.785067zM2455.721848 875.622449l15.155195 45.670385h43.246919l-83.797305-227.600991h-32.426656l-83.558372 227.600991h42.461852l15.940261-45.670385h82.978106z m-41.335453-123.289558l31.607456 94.617568h-64.068245l32.426656-94.617568zM2741.48602 693.691843l-44.612252 97.041035-45.397318-97.041035h-44.100252l68.94931 134.075689v93.525302h40.550386v-93.525302l0.273067-0.273066 68.676244-133.802623z" fill="#3B3A39" p-id="1528"></path></svg>